<svg width="260" height="260" viewBox="0 0 260 260" fill="none" xmlns="http://www.w3.org/2000/svg">
<g id="player">
<rect id="base" width="260" height="260" rx="6" fill="#57E3CA"/>
<circle id="button" cx="27.6595" cy="232.34" r="16.5957" fill="#1C1B44"/>
<g id="record">
<circle id="Ellipse" cx="130" cy="129.447" r="110.638" fill="#1C1B44"/>
<circle id="Ellipse 2" cx="130" cy="128.894" r="101.84" stroke="white" stroke-opacity="0.3"/>
<circle id="Ellipse 2.1" cx="129.447" cy="129.447" r="96.3085" stroke="white" stroke-opacity="0.3"/>
<circle id="Ellipse 2.2" cx="129.447" cy="129.447" r="90.7766" stroke="white" stroke-opacity="0.3"/>
<circle id="Ellipse 2.3" cx="130" cy="130" r="85.2447" stroke="white" stroke-opacity="0.3"/>
<circle id="Ellipse 2.4" cx="130" cy="130" r="79.7128" stroke="white" stroke-opacity="0.3"/>
<circle id="Ellipse 2.5" cx="129.447" cy="128.893" r="74.1808" stroke="white" stroke-opacity="0.3"/>
<circle id="Ellipse 2.6" cx="130.553" cy="128.894" r="68.6489" stroke="white" stroke-opacity="0.3"/>
<circle id="Ellipse 2.7" cx="129.447" cy="128.34" r="63.117" stroke="white" stroke-opacity="0.3"/>
<circle id="Ellipse 2.8" cx="129.447" cy="129.447" r="57.5851" stroke="white" stroke-opacity="0.3"/>
<circle id="Ellipse 2.9" cx="130.553" cy="129.447" r="52.0532" stroke="white" stroke-opacity="0.3"/>
<circle id="Ellipse 2.10" cx="130" cy="129.447" r="41.4894" fill="white"/>
<circle id="Ellipse 3" r="7.74468" transform="matrix(-1 0 0 1 130 129.447)" fill="#1F1F1F"/>
</g>
<g id="arm">
<path id="Vector" d="M212.768 0V119.403C212.768 139.477 204.826 158.737 190.675 172.975L168.512 195.277" stroke="#E9E9E9" stroke-width="13"/>
<path id="head" fill-rule="evenodd" clip-rule="evenodd" d="M189.058 165.142C188.305 164.334 187.039 164.29 186.231 165.043L181.625 169.338L179.971 167.564C179.218 166.756 177.952 166.712 177.144 167.466L139.207 202.842C138.4 203.596 138.355 204.861 139.109 205.669L154.113 221.759C154.866 222.567 156.131 222.611 156.939 221.858L194.876 186.481C195.684 185.727 195.728 184.462 194.975 183.654L193.321 181.88L197.927 177.585C198.735 176.832 198.779 175.566 198.026 174.758L189.058 165.142Z" fill="#F86565"/>
</g>
</g>
</svg>
